# xmcd
#
# Track frame offsets:
#	182
#	14372
#	27582
#	42682
#	58037
#	72392
#	87110
#	101817
#	115407
#	129695
#	144592
#	157822
#	171632
#	185225
#	199067
#	213117
#	228010
#	242710
#	256135
#	268847
#	281885
#	295582
#	310220
#	324587
#
# Disc length: 4519 seconds
#
# Revision: 0
# Processed by: cddbd v1.4PL0 Copyright (c) Steve Scherf et al.
# Submitted via: dBpowerAMP V4.0
#
DISCID=7311a518
DTITLE=Various Artist - Sweet Petunia Georgia Blues
DYEAR=1996
DGENRE=General Blues
TTITLE0=Skin Game Blues/Peg Leg Howell
TTITLE1=Lonesome Blues/Henry Williams and Eddie Anthony
TTITLE2=Broke And Hungry Blues/Peg Leg Howell
TTITLE3=Georgia Crawl/Henry Williams and Eddie Anthony
TTITLE4=Mississippi Heavy Water Blues/Barbecue Bob
TTITLE5=Motherless Child Blues/Barbecue Bob
TTITLE6=Goin Up The Country/Barbecue Bob
TTITLE7=Ease It To Me Blues/Barbecue Bob
TTITLE8=No No Blues/Curley Weaver
TTITLE9=Sweet Petunia/Curley Weaver
TTITLE10=Mama Don'T Rush Me Blues/Willie Baker
TTITLE11=Ball And Chain Blues/Peg Leg Howell
TTITLE12=She Looks So Good/Georgia Cotton Pickers
TTITLE13=She'S Coming Back Some Day/Georgia Cotton Pickers
TTITLE14=De Kalb Chain Gang/Fred McMullen
TTITLE15=Daddy Dont Care/Buddy Moss
TTITLE16=Hard Road Blues/Buddy Moss
TTITLE17=Tampa Strut/The Georgia Browns
TTITLE18=Decatur Steet 81/The Georgia Browns
TTITLE19=It'S A Good Little Thing/Blind Willie McTell
TTITLE20=B and O Blues No. 2/Blind Willie McTell
TTITLE21=Undertaker Blues/Buddy Moss
TTITLE22=Milk Cow Blues/Kokomo Arnold
TTITLE23=The Twelves/Kokomo Arnold
EXTD=submitted by william hale
EXTT0=
EXTT1=
EXTT2=
EXTT3=
EXTT4=
EXTT5=
EXTT6=
EXTT7=
EXTT8=
EXTT9=
EXTT10=
EXTT11=
EXTT12=
EXTT13=
EXTT14=
EXTT15=
EXTT16=
EXTT17=
EXTT18=
EXTT19=
EXTT20=
EXTT21=
EXTT22=
EXTT23=
PLAYORDER=
